<?xml version="1.0" encoding="UTF-8"?>
<!DOCTYPE svg PUBLIC "-//W3C//DTD SVG 1.1//EN" "http://www.w3.org/Graphics/SVG/1.1/DTD/svg11.dtd">
<svg xmlns="http://www.w3.org/2000/svg" version="1.1" width="500px" height="500px" style="shape-rendering:geometricPrecision; text-rendering:geometricPrecision; image-rendering:optimizeQuality; fill-rule:evenodd; clip-rule:evenodd" xmlns:xlink="http://www.w3.org/1999/xlink">
<g><path style="opacity:0.007" fill="#fefffe" d="M 228.5,93.5 C 226.265,93.2053 224.265,93.5386 222.5,94.5C 221.167,94.5 219.833,94.5 218.5,94.5C 221.708,92.4686 225.041,92.1353 228.5,93.5 Z"/></g>
<g><path style="opacity:0.995" fill="#100f11" d="M 280.5,95.5 C 281.568,96.4345 282.901,96.7678 284.5,96.5C 297.579,100.421 309.912,106.088 321.5,113.5C 322.035,115.446 323.368,116.446 325.5,116.5C 325.833,116.5 326.167,116.5 326.5,116.5C 327.29,117.401 328.29,118.068 329.5,118.5C 329.5,119.167 329.833,119.5 330.5,119.5C 331.795,120.488 333.128,121.488 334.5,122.5C 334.5,123.167 334.833,123.5 335.5,123.5C 340.14,127.473 344.473,131.806 348.5,136.5C 348.738,138.404 349.738,139.738 351.5,140.5C 354.401,143.312 357.068,146.312 359.5,149.5C 359.5,150.167 359.833,150.5 360.5,150.5C 361.847,153.193 363.18,155.86 364.5,158.5C 364.427,160.027 365.094,161.027 366.5,161.5C 371.176,168.525 374.509,176.192 376.5,184.5C 376.528,187.916 377.528,190.916 379.5,193.5C 380.341,195.379 380.675,197.379 380.5,199.5C 380.5,200.5 380.5,201.5 380.5,202.5C 387.167,202.5 393.833,202.5 400.5,202.5C 401.833,218.833 401.833,235.167 400.5,251.5C 393.833,251.5 387.167,251.5 380.5,251.5C 380.5,252.5 380.5,253.5 380.5,254.5C 379.833,258.5 379.167,262.5 378.5,266.5C 377.596,267.209 377.263,268.209 377.5,269.5C 376.596,270.209 376.263,271.209 376.5,272.5C 375.662,272.842 375.328,273.508 375.5,274.5C 374.596,275.209 374.263,276.209 374.5,277.5C 372.408,280.088 371.075,283.088 370.5,286.5C 368.412,288.336 367.079,290.669 366.5,293.5C 365.662,293.842 365.328,294.508 365.5,295.5C 364.833,295.5 364.5,295.833 364.5,296.5C 363.662,296.842 363.328,297.508 363.5,298.5C 362.662,298.842 362.328,299.508 362.5,300.5C 360.457,301.579 359.124,303.246 358.5,305.5C 357.662,305.842 357.328,306.508 357.5,307.5C 356.833,307.5 356.5,307.833 356.5,308.5C 355.833,308.5 355.5,308.833 355.5,309.5C 354.662,309.842 354.328,310.508 354.5,311.5C 353.833,311.5 353.5,311.833 353.5,312.5C 352.833,312.5 352.5,312.833 352.5,313.5C 351.833,313.5 351.5,313.833 351.5,314.5C 350.833,314.5 350.5,314.833 350.5,315.5C 349.833,315.5 349.5,315.833 349.5,316.5C 347.457,317.579 346.124,319.246 345.5,321.5C 344.833,321.5 344.5,321.833 344.5,322.5C 343.833,322.5 343.5,322.833 343.5,323.5C 341.77,324.026 340.436,325.026 339.5,326.5C 338.833,326.5 338.5,326.833 338.5,327.5C 337.833,327.5 337.5,327.833 337.5,328.5C 336.833,328.5 336.5,328.833 336.5,329.5C 335.833,329.5 335.5,329.833 335.5,330.5C 334.833,330.5 334.5,330.833 334.5,331.5C 333.508,331.328 332.842,331.662 332.5,332.5C 331.833,332.5 331.5,332.833 331.5,333.5C 329.246,334.124 327.579,335.457 326.5,337.5C 325.508,337.328 324.842,337.662 324.5,338.5C 323.833,338.5 323.5,338.833 323.5,339.5C 322.508,339.328 321.842,339.662 321.5,340.5C 320.833,340.5 320.5,340.833 320.5,341.5C 319.508,341.328 318.842,341.662 318.5,342.5C 317.508,342.328 316.842,342.662 316.5,343.5C 315.833,343.5 315.5,343.833 315.5,344.5C 314.508,344.328 313.842,344.662 313.5,345.5C 312.508,345.328 311.842,345.662 311.5,346.5C 310.508,346.328 309.842,346.662 309.5,347.5C 308.508,347.328 307.842,347.662 307.5,348.5C 306.508,348.328 305.842,348.662 305.5,349.5C 304.508,349.328 303.842,349.662 303.5,350.5C 302.209,350.263 301.209,350.596 300.5,351.5C 299.508,351.328 298.842,351.662 298.5,352.5C 297.209,352.263 296.209,352.596 295.5,353.5C 294.209,353.263 293.209,353.596 292.5,354.5C 291.209,354.263 290.209,354.596 289.5,355.5C 288.209,355.263 287.209,355.596 286.5,356.5C 284.901,356.232 283.568,356.566 282.5,357.5C 280.901,357.232 279.568,357.566 278.5,358.5C 276.585,358.216 274.919,358.549 273.5,359.5C 257.502,360.814 241.502,360.814 225.5,359.5C 224.081,358.549 222.415,358.216 220.5,358.5C 219.432,357.566 218.099,357.232 216.5,357.5C 216.5,357.167 216.5,356.833 216.5,356.5C 214.485,355.076 212.152,354.41 209.5,354.5C 200.453,352.151 191.787,348.818 183.5,344.5C 183.5,343.833 183.167,343.5 182.5,343.5C 177.523,340.2 172.523,336.867 167.5,333.5C 167.5,332.833 167.167,332.5 166.5,332.5C 164.858,331.197 163.191,329.864 161.5,328.5C 161.5,327.833 161.167,327.5 160.5,327.5C 156.167,323.833 152.167,319.833 148.5,315.5C 148.5,314.833 148.167,314.5 147.5,314.5C 146.136,312.809 144.803,311.142 143.5,309.5C 143.5,308.833 143.167,308.5 142.5,308.5C 142.068,307.29 141.401,306.29 140.5,305.5C 140.5,304.833 140.167,304.5 139.5,304.5C 136.799,300.144 134.132,295.811 131.5,291.5C 131.5,290.833 131.167,290.5 130.5,290.5C 124.787,279.073 120.787,267.073 118.5,254.5C 118.5,253.5 118.5,252.5 118.5,251.5C 112.167,251.5 105.833,251.5 99.5,251.5C 98.1688,243.695 97.5021,235.528 97.5,227C 97.5003,218.66 97.8336,210.493 98.5,202.5C 105.167,202.5 111.833,202.5 118.5,202.5C 118.5,201.5 118.5,200.5 118.5,199.5C 118.325,197.379 118.659,195.379 119.5,193.5C 121.074,191.898 121.741,189.898 121.5,187.5C 121.5,186.5 121.5,185.5 121.5,184.5C 122.404,183.791 122.737,182.791 122.5,181.5C 123.404,180.791 123.737,179.791 123.5,178.5C 124.338,178.158 124.672,177.492 124.5,176.5C 127.403,171.023 130.07,165.357 132.5,159.5C 133.167,159.5 133.5,159.167 133.5,158.5C 134.167,157.833 134.833,157.167 135.5,156.5C 136.906,156.027 137.573,155.027 137.5,153.5C 138.906,153.027 139.573,152.027 139.5,150.5C 139.557,149.391 139.89,148.391 140.5,147.5C 141.167,147.5 141.5,147.167 141.5,146.5C 142.488,145.205 143.488,143.872 144.5,142.5C 145.167,142.5 145.5,142.167 145.5,141.5C 145.833,141.5 146.167,141.5 146.5,141.5C 148.262,140.738 149.262,139.404 149.5,137.5C 150.5,136.167 151.5,134.833 152.5,133.5C 153.167,133.5 153.5,133.167 153.5,132.5C 154.167,132.5 154.5,132.167 154.5,131.5C 155.167,131.5 155.5,131.167 155.5,130.5C 156.833,129.5 158.167,128.5 159.5,127.5C 161.749,126.92 163.415,125.587 164.5,123.5C 164.5,123.167 164.5,122.833 164.5,122.5C 165.167,122.5 165.5,122.167 165.5,121.5C 167.001,120.248 168.668,119.248 170.5,118.5C 172.027,118.573 173.027,117.906 173.5,116.5C 173.973,115.094 174.973,114.427 176.5,114.5C 178.027,114.573 179.027,113.906 179.5,112.5C 179.842,111.662 180.508,111.328 181.5,111.5C 183.027,111.573 184.027,110.906 184.5,109.5C 189.735,106.051 195.402,103.384 201.5,101.5C 203.698,101.88 205.365,101.213 206.5,99.5C 206.833,99.5 207.167,99.5 207.5,99.5C 209.898,99.7406 211.898,99.0739 213.5,97.5C 214.167,97.5 214.5,97.1667 214.5,96.5C 216.099,96.7678 217.432,96.4345 218.5,95.5C 220.099,95.7678 221.432,95.4345 222.5,94.5C 224.735,94.7947 226.735,94.4614 228.5,93.5C 245.936,91.7603 263.269,92.427 280.5,95.5 Z"/></g>
<g><path style="opacity:0.007" fill="#fefffe" d="M 218.5,94.5 C 218.5,94.8333 218.5,95.1667 218.5,95.5C 216.901,95.2322 215.568,95.5655 214.5,96.5C 213.127,96.6567 211.793,96.49 210.5,96C 213.063,94.9207 215.729,94.4207 218.5,94.5 Z"/></g>
<g><path style="opacity:0.007" fill="#fefffe" d="M 280.5,95.5 C 283.068,94.3569 285.735,94.5236 288.5,96C 287.207,96.49 285.873,96.6567 284.5,96.5C 283.432,95.5655 282.099,95.2322 280.5,95.5 Z"/></g>
<g><path style="opacity:0.725" fill="#888888" d="M 213.5,97.5 C 211.898,99.0739 209.898,99.7406 207.5,99.5C 209.214,98.2616 211.214,97.595 213.5,97.5 Z"/></g>
<g><path style="opacity:1" fill="#46404f" d="M 373.5,199.5 C 356.532,201.486 339.199,202.153 321.5,201.5C 317.352,190.535 311.185,180.868 303,172.5C 299.5,163.667 293.333,157.5 284.5,154C 272.892,149.715 260.892,147.882 248.5,148.5C 234.045,147.698 220.378,150.532 207.5,157C 201.293,160.896 197.126,166.396 195,173.5C 187.162,181.17 181.328,190.17 177.5,200.5C 159.846,201.5 142.179,201.833 124.5,201.5C 135.174,155.994 162.174,124.494 205.5,107C 261.2,89.9645 308.7,102.798 348,145.5C 361.063,161.295 369.563,179.295 373.5,199.5 Z"/></g>
<g><path style="opacity:0.769" fill="#848484" d="M 206.5,99.5 C 205.365,101.213 203.698,101.88 201.5,101.5C 202.93,100.463 204.597,99.7959 206.5,99.5 Z"/></g>
<g><path style="opacity:1" fill="#f0eff2" d="M 261.5,118.5 C 262.473,116.052 262.806,113.385 262.5,110.5C 260.833,110.5 259.167,110.5 257.5,110.5C 257.5,113.5 257.5,116.5 257.5,119.5C 257.5,125.5 257.5,131.5 257.5,137.5C 255.833,137.5 254.167,137.5 252.5,137.5C 252.5,128.5 252.5,119.5 252.5,110.5C 251.5,110.5 250.5,110.5 249.5,110.5C 248.66,119.138 248.327,127.805 248.5,136.5C 246.833,136.5 245.167,136.5 243.5,136.5C 243.214,126.788 243.714,117.121 245,107.5C 248.667,104.833 252.333,104.833 256,107.5C 259.333,106.167 262.667,106.167 266,107.5C 266.729,117.527 266.563,127.527 265.5,137.5C 263.833,137.5 262.167,137.5 260.5,137.5C 261.32,131.203 261.653,124.869 261.5,118.5 Z"/></g>
<g><path style="opacity:0.702" fill="#828282" d="M 184.5,109.5 C 184.027,110.906 183.027,111.573 181.5,111.5C 181.973,110.094 182.973,109.427 184.5,109.5 Z"/></g>
<g><path style="opacity:1" fill="#f3f1f5" d="M 220.5,108.5 C 223.044,108.104 225.211,108.771 227,110.5C 228.089,114.356 229.256,118.19 230.5,122C 228.971,123.582 228.471,125.415 229,127.5C 231.5,130.5 234,133.5 236.5,136.5C 235.131,138.124 233.464,138.624 231.5,138C 229.353,134.885 226.853,132.052 224,129.5C 223.74,132.577 224.24,135.577 225.5,138.5C 224.638,140.767 222.971,141.767 220.5,141.5C 218.363,131.99 216.03,122.49 213.5,113C 213.645,112.228 213.978,111.561 214.5,111C 216.611,110.155 218.611,109.322 220.5,108.5 Z"/></g>
<g><path style="opacity:0.667" fill="#868686" d="M 179.5,112.5 C 179.027,113.906 178.027,114.573 176.5,114.5C 176.973,113.094 177.973,112.427 179.5,112.5 Z"/></g>
<g><path style="opacity:0.859" fill="#7e7e7e" d="M 321.5,113.5 C 322.833,114.167 324.167,114.833 325.5,115.5C 325.5,115.833 325.5,116.167 325.5,116.5C 323.368,116.446 322.035,115.446 321.5,113.5 Z"/></g>
<g><path style="opacity:0.007" fill="#fefffe" d="M 325.5,115.5 C 326.497,114.287 327.497,114.454 328.5,116C 327.906,116.464 327.239,116.631 326.5,116.5C 326.5,115.833 326.167,115.5 325.5,115.5 Z"/></g>
<g><path style="opacity:0.639" fill="#8c8c8c" d="M 173.5,116.5 C 173.027,117.906 172.027,118.573 170.5,118.5C 170.973,117.094 171.973,116.427 173.5,116.5 Z"/></g>
<g><path style="opacity:1" fill="#4e4a54" d="M 220.5,113.5 C 221.496,113.414 222.329,113.748 223,114.5C 223.311,116.556 223.811,118.556 224.5,120.5C 223.855,121.646 223.022,122.646 222,123.5C 219.604,120.37 219.104,117.036 220.5,113.5 Z"/></g>
<g><path style="opacity:1" fill="#acaab0" d="M 261.5,118.5 C 261.5,116.167 261.5,113.833 261.5,111.5C 260.5,111.5 259.5,111.5 258.5,111.5C 258.806,114.385 258.473,117.052 257.5,119.5C 257.5,116.5 257.5,113.5 257.5,110.5C 259.167,110.5 260.833,110.5 262.5,110.5C 262.806,113.385 262.473,116.052 261.5,118.5 Z"/></g>
<g><path style="opacity:0.007" fill="#fefffe" d="M 329.5,118.5 C 330.497,117.287 331.497,117.454 332.5,119C 331.906,119.464 331.239,119.631 330.5,119.5C 329.833,119.5 329.5,119.167 329.5,118.5 Z"/></g>
<g><path style="opacity:0.006" fill="#fefffe" d="M 165.5,121.5 C 164.833,121.5 164.5,121.833 164.5,122.5C 162.025,122.253 162.025,121.587 164.5,120.5C 165.107,120.624 165.44,120.957 165.5,121.5 Z"/></g>
<g><path style="opacity:1" fill="#f2f1f4" d="M 192.5,119.5 C 195.325,119.081 197.491,120.081 199,122.5C 202.667,128.833 206.333,135.167 210,141.5C 210.667,143.167 210.667,144.833 210,146.5C 206.945,149.271 203.445,150.438 199.5,150C 194.236,142.559 189.57,134.725 185.5,126.5C 186,125.5 186.5,124.5 187,123.5C 189.167,122.512 191,121.179 192.5,119.5 Z"/></g>
<g><path style="opacity:0.006" fill="#fefffe" d="M 334.5,122.5 C 335.497,121.287 336.497,121.454 337.5,123C 336.906,123.464 336.239,123.631 335.5,123.5C 334.833,123.5 334.5,123.167 334.5,122.5 Z"/></g>
<g><path style="opacity:0.796" fill="#6c6c6c" d="M 164.5,123.5 C 163.415,125.587 161.749,126.92 159.5,127.5C 160.585,125.413 162.251,124.08 164.5,123.5 Z"/></g>
<g><path style="opacity:1" fill="#f3f1f4" d="M 304.5,119.5 C 306.897,121.432 309.564,122.932 312.5,124C 313.899,125.062 314.899,126.395 315.5,128C 310.465,136.567 305.299,145.067 300,153.5C 298.513,152.845 297.347,151.845 296.5,150.5C 300.833,143.167 305.167,135.833 309.5,128.5C 308.112,125.921 306.612,125.921 305,128.5C 301.084,135.335 296.917,142.002 292.5,148.5C 290.998,147.917 289.665,147.084 288.5,146C 294.059,137.281 299.392,128.447 304.5,119.5 Z"/></g>
<g><path style="opacity:1" fill="#4d4953" d="M 192.5,125.5 C 193.675,125.281 194.675,125.614 195.5,126.5C 198.468,131.964 201.634,137.297 205,142.5C 205.688,143.332 205.521,143.998 204.5,144.5C 203.391,145.59 202.391,145.59 201.5,144.5C 198.419,138.669 195.085,133.002 191.5,127.5C 191.863,126.817 192.196,126.15 192.5,125.5 Z"/></g>
<g><path style="opacity:0.006" fill="#fefffe" d="M 155.5,130.5 C 154.833,130.5 154.5,130.833 154.5,131.5C 153.833,131.5 153.5,131.833 153.5,132.5C 152.833,132.5 152.5,132.833 152.5,133.5C 151.493,131.732 152.159,130.399 154.5,129.5C 155.107,129.624 155.44,129.957 155.5,130.5 Z"/></g>
<g><path style="opacity:0.725" fill="#808080" d="M 348.5,136.5 C 350.262,137.262 351.262,138.596 351.5,140.5C 349.738,139.738 348.738,138.404 348.5,136.5 Z"/></g>
<g><path style="opacity:0.714" fill="#808080" d="M 149.5,137.5 C 149.262,139.404 148.262,140.738 146.5,141.5C 146.738,139.596 147.738,138.262 149.5,137.5 Z"/></g>
<g><path style="opacity:0.007" fill="#fefffe" d="M 145.5,141.5 C 144.833,141.5 144.5,141.833 144.5,142.5C 143.287,141.503 143.454,140.503 145,139.5C 145.464,140.094 145.631,140.761 145.5,141.5 Z"/></g>
<g><path style="opacity:0.006" fill="#fefffe" d="M 141.5,146.5 C 140.833,146.5 140.5,146.833 140.5,147.5C 139.287,146.503 139.454,145.503 141,144.5C 141.464,145.094 141.631,145.761 141.5,146.5 Z"/></g>
<g><path style="opacity:1" fill="#f4f3f6" d="M 328.5,139.5 C 330.783,139.608 332.783,140.441 334.5,142C 335.453,143.955 336.787,145.622 338.5,147C 337.646,148.022 336.646,148.855 335.5,149.5C 333.833,148.167 332.167,146.833 330.5,145.5C 328.5,147.167 326.5,148.833 324.5,150.5C 326.5,151.5 328.5,152.5 330.5,153.5C 330.023,154.478 329.357,155.311 328.5,156C 325.328,156.425 322.328,156.091 319.5,155C 317.833,156.667 316.167,158.333 314.5,160C 316.227,161.389 317.561,163.056 318.5,165C 318.046,166.622 317.046,167.788 315.5,168.5C 313.016,165.516 310.35,162.682 307.5,160C 314.395,152.937 321.395,146.103 328.5,139.5 Z"/></g>
<g><path style="opacity:0.007" fill="#fefffe" d="M 360.5,150.5 C 359.833,150.5 359.5,150.167 359.5,149.5C 359.747,147.025 360.413,147.025 361.5,149.5C 361.376,150.107 361.043,150.44 360.5,150.5 Z"/></g>
<g><path style="opacity:1" fill="#f2f0f4" d="M 170.5,135.5 C 175.293,136.93 175.626,139.096 171.5,142C 177.833,148.333 184.167,154.667 190.5,161C 189.333,162.167 188.167,163.333 187,164.5C 181.292,158.624 175.459,152.958 169.5,147.5C 167.157,146.275 165.323,146.941 164,149.5C 161.945,148.328 161.278,146.661 162,144.5C 165.038,141.631 167.871,138.631 170.5,135.5 Z"/></g>
<g><path style="opacity:0.471" fill="#7a7a7a" d="M 139.5,150.5 C 139.573,152.027 138.906,153.027 137.5,153.5C 137.427,151.973 138.094,150.973 139.5,150.5 Z"/></g>
<g><path style="opacity:0.412" fill="#8a8a8a" d="M 137.5,153.5 C 137.573,155.027 136.906,156.027 135.5,156.5C 135.427,154.973 136.094,153.973 137.5,153.5 Z"/></g>
<g><path style="opacity:0.007" fill="#fefffe" d="M 133.5,158.5 C 132.833,158.5 132.5,158.833 132.5,159.5C 131.287,158.503 131.454,157.503 133,156.5C 133.464,157.094 133.631,157.761 133.5,158.5 Z"/></g>
<g><path style="opacity:0.345" fill="#99999a" d="M 364.5,158.5 C 365.906,158.973 366.573,159.973 366.5,161.5C 365.094,161.027 364.427,160.027 364.5,158.5 Z"/></g>
<g><path style="opacity:1" fill="#6e656d" d="M 242.5,152.5 C 246.167,152.5 249.833,152.5 253.5,152.5C 254.091,153.151 254.757,153.818 255.5,154.5C 251.718,155.705 248.052,157.205 244.5,159C 247.076,160.122 249.743,161.122 252.5,162C 250.137,164.506 248.47,167.339 247.5,170.5C 253.541,169.883 259.541,169.383 265.5,169C 263.5,170 261.5,171 259.5,172C 260.672,172.419 261.672,173.085 262.5,174C 252.337,174.021 246.337,178.854 244.5,188.5C 240.24,184.35 235.073,182.016 229,181.5C 222.49,180.192 215.99,180.192 209.5,181.5C 207.302,180.835 204.969,180.168 202.5,179.5C 205.877,169.289 212.544,162.123 222.5,158C 229.211,155.839 235.878,154.006 242.5,152.5 Z"/></g>
<g><path style="opacity:1" fill="#48404f" d="M 225.5,162.5 C 232.2,162.17 238.866,162.503 245.5,163.5C 243.165,166.166 241.331,169.166 240,172.5C 239.667,170.833 239.333,169.167 239,167.5C 238,169.5 237,171.5 236,173.5C 234.588,167.01 233.088,167.176 231.5,174C 224.507,175.249 217.507,176.416 210.5,177.5C 210.531,174.041 211.198,170.708 212.5,167.5C 216.691,165.218 221.025,163.551 225.5,162.5 Z"/></g>
<g><path style="opacity:1" fill="#efedee" d="M 242.5,152.5 C 235.878,154.006 229.211,155.839 222.5,158C 212.544,162.123 205.877,169.289 202.5,179.5C 204.969,180.168 207.302,180.835 209.5,181.5C 205.467,182.349 201.801,184.016 198.5,186.5C 196.808,176.083 200.141,167.583 208.5,161C 219.008,155.04 230.342,152.206 242.5,152.5 Z"/></g>
<g><path style="opacity:1" fill="#f3f1f5" d="M 346.5,159.5 C 347.496,159.414 348.329,159.748 349,160.5C 350.413,163.661 352.08,166.661 354,169.5C 354.775,171.949 353.942,173.616 351.5,174.5C 350.5,173.167 349.5,171.833 348.5,170.5C 340.671,174.58 333.004,178.913 325.5,183.5C 323.876,182.131 323.376,180.464 324,178.5C 331.419,174.207 338.919,170.04 346.5,166C 343.929,163.744 343.929,161.578 346.5,159.5 Z"/></g>
<g><path style="opacity:0.007" fill="#fefffe" d="M 124.5,176.5 C 123.662,176.842 123.328,177.508 123.5,178.5C 123.167,178.5 122.833,178.5 122.5,178.5C 122.491,176.692 122.991,175.025 124,173.5C 124.483,174.448 124.649,175.448 124.5,176.5 Z"/></g>
<g><path style="opacity:1" fill="#f5f3f6" d="M 150.5,160.5 C 155.213,160.468 156.713,162.801 155,167.5C 153.022,166.184 151.522,166.684 150.5,169C 152.818,170.993 155.484,172.159 158.5,172.5C 158.335,169.482 158.502,166.482 159,163.5C 164.667,166.833 170.333,170.167 176,173.5C 176.664,178.839 174.664,182.839 170,185.5C 165.794,184.407 164.461,181.74 166,177.5C 168.262,180.097 170.095,179.93 171.5,177C 168.714,174.94 165.714,173.44 162.5,172.5C 162.665,175.518 162.498,178.518 162,181.5C 157.742,178.62 153.242,176.12 148.5,174C 146.876,172.883 145.876,171.383 145.5,169.5C 146.755,166.251 148.422,163.251 150.5,160.5 Z"/></g>
<g><path style="opacity:0.006" fill="#fefffe" d="M 122.5,178.5 C 122.5,179.5 122.5,180.5 122.5,181.5C 121.596,182.209 121.263,183.209 121.5,184.5C 121.167,184.5 120.833,184.5 120.5,184.5C 120.259,182.102 120.926,180.102 122.5,178.5 Z"/></g>
<g><path style="opacity:0.008" fill="#fefffe" d="M 120.5,184.5 C 120.5,185.5 120.5,186.5 120.5,187.5C 119.596,188.209 119.263,189.209 119.5,190.5C 118.206,188.32 118.539,186.32 120.5,184.5 Z"/></g>
<g><path style="opacity:0.776" fill="#7f807f" d="M 376.5,184.5 C 378.072,187.215 379.072,190.215 379.5,193.5C 377.528,190.916 376.528,187.916 376.5,184.5 Z"/></g>
<g><path style="opacity:1" fill="#6a666a" d="M 217.5,182.5 C 219.74,183.264 222.073,184.098 224.5,185C 219.924,185.272 215.591,186.105 211.5,187.5C 202.634,189.197 197.134,194.53 195,203.5C 194.501,208.823 194.334,214.156 194.5,219.5C 191.234,206.566 194.234,195.233 203.5,185.5C 207.787,183.265 212.454,182.265 217.5,182.5 Z"/></g>
<g><path style="opacity:1" fill="#7e58cb" d="M 211.5,189.5 C 211.842,188.662 212.508,188.328 213.5,188.5C 220.818,188.287 227.818,189.287 234.5,191.5C 229.154,190.467 223.82,190.467 218.5,191.5C 219.747,193.323 220.414,195.323 220.5,197.5C 218.74,193.405 215.74,190.738 211.5,189.5 Z"/></g>
<g><path style="opacity:1" fill="#7953c7" d="M 279.5,188.5 C 282.187,188.336 284.854,188.503 287.5,189C 289.653,189.099 291.319,189.933 292.5,191.5C 289.236,190.676 285.902,190.342 282.5,190.5C 282.5,191.833 282.5,193.167 282.5,194.5C 281.263,193.035 280.263,191.368 279.5,189.5C 279.5,189.167 279.5,188.833 279.5,188.5 Z"/></g>
<g><path style="opacity:0.718" fill="#7b7b7b" d="M 120.5,187.5 C 120.833,187.5 121.167,187.5 121.5,187.5C 121.741,189.898 121.074,191.898 119.5,193.5C 119.5,192.5 119.5,191.5 119.5,190.5C 120.404,189.791 120.737,188.791 120.5,187.5 Z"/></g>
<g><path style="opacity:1" fill="#8952f7" d="M 234.5,191.5 C 238.748,192.588 240.248,195.255 239,199.5C 231.92,206.42 224.42,212.753 216.5,218.5C 215.448,218.649 214.448,218.483 213.5,218C 214.38,216.644 214.714,215.144 214.5,213.5C 214.5,213.167 214.5,212.833 214.5,212.5C 215.093,209.404 214.093,207.071 211.5,205.5C 214.3,202.93 217.3,200.597 220.5,198.5C 220.5,198.167 220.5,197.833 220.5,197.5C 220.414,195.323 219.747,193.323 218.5,191.5C 223.82,190.467 229.154,190.467 234.5,191.5 Z"/></g>
<g><path style="opacity:1" fill="#f7f4f9" d="M 279.5,189.5 C 280.263,191.368 281.263,193.035 282.5,194.5C 281.916,197.285 282.916,198.952 285.5,199.5C 285.953,200.458 286.619,201.292 287.5,202C 284.577,201.807 281.744,200.974 279,199.5C 278.5,199.833 278,200.167 277.5,200.5C 279.521,201.855 281.188,203.521 282.5,205.5C 279.147,205.345 278.814,206.012 281.5,207.5C 282.5,208.833 283.5,210.167 284.5,211.5C 281.754,213.126 278.754,213.793 275.5,213.5C 270.54,209.712 265.707,205.712 261,201.5C 258.436,194.685 260.936,190.852 268.5,190C 272.152,189.501 275.818,189.335 279.5,189.5 Z"/></g>
<g><path style="opacity:0.008" fill="#fefffe" d="M 116.5,198.5 C 116.343,197.127 116.51,195.793 117,194.5C 117.765,196.066 117.598,197.399 116.5,198.5 Z"/></g>
<g><path style="opacity:0.006" fill="#fefffe" d="M 382.5,199.5 C 382.167,199.5 381.833,199.5 381.5,199.5C 381.833,192.833 382.167,192.833 382.5,199.5 Z"/></g>
<g><path style="opacity:1" fill="#433d4a" d="M 300.5,227.5 C 305.875,216.844 305.708,206.177 300,195.5C 294.551,188.748 287.718,186.081 279.5,187.5C 277.5,187.5 275.5,187.5 273.5,187.5C 273.918,186.778 274.584,186.278 275.5,186C 272.649,184.711 269.649,184.211 266.5,184.5C 300.319,178.326 313.653,192.326 306.5,226.5C 304.604,227.466 302.604,227.799 300.5,227.5 Z"/></g>
<g><path style="opacity:0.011" fill="#fefffe" d="M 116.5,198.5 C 113.913,199.816 110.913,200.483 107.5,200.5C 104.5,200.333 101.5,200.167 98.5,200C 104.581,199.791 110.581,199.291 116.5,198.5 Z"/></g>
<g><path style="opacity:1" fill="#161416" d="M 273.5,187.5 C 275.5,187.5 277.5,187.5 279.5,187.5C 279.5,187.833 279.5,188.167 279.5,188.5C 279.5,188.833 279.5,189.167 279.5,189.5C 275.818,189.335 272.152,189.501 268.5,190C 260.936,190.852 258.436,194.685 261,201.5C 265.707,205.712 270.54,209.712 275.5,213.5C 275.5,213.833 275.5,214.167 275.5,214.5C 275.5,214.833 275.5,215.167 275.5,215.5C 270.121,211.055 264.621,206.721 259,202.5C 256.413,197.587 257.247,193.42 261.5,190C 265.378,188.53 269.378,187.697 273.5,187.5 Z"/></g>
<g><path style="opacity:0.01" fill="#fefffe" d="M 382.5,199.5 C 388.509,199.334 394.509,199.501 400.5,200C 394.319,200.819 388.319,200.653 382.5,199.5 Z"/></g>
<g><path style="opacity:1" fill="#d3d1d3" d="M 258.5,187.5 C 253.841,195.56 254.841,202.894 261.5,209.5C 253.767,205.7 251.267,199.7 254,191.5C 254.876,189.365 256.376,188.031 258.5,187.5 Z"/></g>
<g><path style="opacity:0.336" fill="#969696" d="M 118.5,199.5 C 118.5,200.5 118.5,201.5 118.5,202.5C 111.833,202.5 105.167,202.5 98.5,202.5C 105.261,202.087 111.928,201.087 118.5,199.5 Z"/></g>
<g><path style="opacity:1" fill="#69616a" d="M 245.5,204.5 C 247.481,200.286 247.814,195.953 246.5,191.5C 247.427,189.524 248.76,189.191 250.5,190.5C 248.954,197.131 249.287,203.631 251.5,210C 249.19,210.497 246.857,210.663 244.5,210.5C 244.833,208.5 245.167,206.5 245.5,204.5 Z"/></g>
<g><path style="opacity:1" fill="#28252d" d="M 373.5,199.5 C 374.404,200.209 374.737,201.209 374.5,202.5C 356.659,202.83 338.992,202.497 321.5,201.5C 339.199,202.153 356.532,201.486 373.5,199.5 Z"/></g>
<g><path style="opacity:0.353" fill="#979797" d="M 380.5,199.5 C 380.833,199.5 381.167,199.5 381.5,199.5C 387.601,201.149 393.935,202.149 400.5,202.5C 393.833,202.5 387.167,202.5 380.5,202.5C 380.5,201.5 380.5,200.5 380.5,199.5 Z"/></g>
<g><path style="opacity:1" fill="#9267e9" d="M 285.5,199.5 C 288.179,199.525 289.512,200.858 289.5,203.5C 287.801,203.34 286.134,203.506 284.5,204C 286.211,205.133 286.711,206.633 286,208.5C 285.601,208.272 285.435,207.938 285.5,207.5C 285.027,206.094 284.027,205.427 282.5,205.5C 281.188,203.521 279.521,201.855 277.5,200.5C 278,200.167 278.5,199.833 279,199.5C 281.744,200.974 284.577,201.807 287.5,202C 286.619,201.292 285.953,200.458 285.5,199.5 Z"/></g>
<g><path style="opacity:1" fill="#8953f6" d="M 292.5,191.5 C 295.833,192.833 298.167,195.167 299.5,198.5C 300.892,204.748 301.558,211.082 301.5,217.5C 302.558,225.275 299.225,228.442 291.5,227C 289.004,225.669 287.004,223.836 285.5,221.5C 283.856,219.519 282.19,217.519 280.5,215.5C 282.769,214.995 284.103,213.662 284.5,211.5C 283.5,210.167 282.5,208.833 281.5,207.5C 282.632,206.646 283.965,206.646 285.5,207.5C 285.435,207.938 285.601,208.272 286,208.5C 286.711,206.633 286.211,205.133 284.5,204C 286.134,203.506 287.801,203.34 289.5,203.5C 289.512,200.858 288.179,199.525 285.5,199.5C 282.916,198.952 281.916,197.285 282.5,194.5C 282.5,193.167 282.5,191.833 282.5,190.5C 285.902,190.342 289.236,190.676 292.5,191.5 Z"/></g>
<g><path style="opacity:1" fill="#f9f6fb" d="M 211.5,189.5 C 215.74,190.738 218.74,193.405 220.5,197.5C 220.5,197.833 220.5,198.167 220.5,198.5C 216.627,199.434 212.961,200.934 209.5,203C 208.663,204.011 208.33,205.178 208.5,206.5C 207.566,207.568 207.232,208.901 207.5,210.5C 208.791,210.263 209.791,210.596 210.5,211.5C 208.683,212.219 208.016,213.219 208.5,214.5C 210.45,213.628 212.45,212.961 214.5,212.5C 214.5,212.833 214.5,213.167 214.5,213.5C 212.416,216.765 210.083,219.932 207.5,223C 205.091,224.707 202.425,225.54 199.5,225.5C 197.933,224.319 197.099,222.653 197,220.5C 195.685,212.173 196.685,204.173 200,196.5C 202.851,192.494 206.685,190.16 211.5,189.5 Z"/></g>
<g><path style="opacity:1" fill="#8e67e0" d="M 208.5,194.5 C 209.873,194.343 211.207,194.51 212.5,195C 213.451,195.718 213.617,196.551 213,197.5C 209.689,199.493 206.189,200.659 202.5,201C 204.706,198.963 206.706,196.797 208.5,194.5 Z"/></g>
<g><path style="opacity:1" fill="#6b656a" d="M 266.5,184.5 C 269.649,184.211 272.649,184.711 275.5,186C 274.584,186.278 273.918,186.778 273.5,187.5C 269.378,187.697 265.378,188.53 261.5,190C 257.247,193.42 256.413,197.587 259,202.5C 264.621,206.721 270.121,211.055 275.5,215.5C 276.167,216.5 276.833,217.5 277.5,218.5C 276.001,219.494 274.334,219.494 272.5,218.5C 268.242,216.207 264.576,213.207 261.5,209.5C 254.841,202.894 253.841,195.56 258.5,187.5C 260.698,185.603 263.364,184.603 266.5,184.5 Z"/></g>
<g><path style="opacity:1" fill="#8d5fea" d="M 220.5,198.5 C 217.3,200.597 214.3,202.93 211.5,205.5C 214.093,207.071 215.093,209.404 214.5,212.5C 212.45,212.961 210.45,213.628 208.5,214.5C 208.016,213.219 208.683,212.219 210.5,211.5C 211.627,210.878 212.627,210.045 213.5,209C 211.893,209.019 210.226,209.185 208.5,209.5C 208.5,208.5 208.5,207.5 208.5,206.5C 208.33,205.178 208.663,204.011 209.5,203C 212.961,200.934 216.627,199.434 220.5,198.5 Z"/></g>
<g><path style="opacity:1" fill="#8f67e1" d="M 269.5,201.5 C 272.55,203.364 275.217,205.697 277.5,208.5C 272.567,209.258 269.9,206.924 269.5,201.5 Z"/></g>
<g><path style="opacity:1" fill="#cfadf4" d="M 282.5,205.5 C 284.027,205.427 285.027,206.094 285.5,207.5C 283.965,206.646 282.632,206.646 281.5,207.5C 278.814,206.012 279.147,205.345 282.5,205.5 Z"/></g>
<g><path style="opacity:1" fill="#1a024b" d="M 104.5,208.5 C 127.994,207.502 151.661,207.169 175.5,207.5C 175.784,209.415 175.451,211.081 174.5,212.5C 174.5,211.167 174.5,209.833 174.5,208.5C 151.167,208.5 127.833,208.5 104.5,208.5 Z"/></g>
<g><path style="opacity:1" fill="#7a55c6" d="M 104.5,208.5 C 127.833,208.5 151.167,208.5 174.5,208.5C 174.5,209.833 174.5,211.167 174.5,212.5C 174.672,213.492 174.338,214.158 173.5,214.5C 173.5,212.833 173.5,211.167 173.5,209.5C 150.994,209.169 128.66,209.503 106.5,210.5C 105.505,221.654 105.172,232.988 105.5,244.5C 124.179,244.833 142.845,244.5 161.5,243.5C 162.041,241.465 162.708,239.465 163.5,237.5C 164.265,236.388 165.265,235.721 166.5,235.5C 164.368,238.306 163.034,241.473 162.5,245C 143.17,245.5 123.836,245.667 104.5,245.5C 104.5,233.167 104.5,220.833 104.5,208.5 Z"/></g>
<g><path style="opacity:1" fill="#8755ec" d="M 106.5,210.5 C 128.66,209.503 150.994,209.169 173.5,209.5C 173.5,211.167 173.5,212.833 173.5,214.5C 173.827,219.214 173.493,223.88 172.5,228.5C 169.781,230.307 167.781,232.64 166.5,235.5C 166.215,233.712 166.548,232.045 167.5,230.5C 168.897,228.067 170.397,225.734 172,223.5C 172.499,219.179 172.666,214.846 172.5,210.5C 150.5,210.5 128.5,210.5 106.5,210.5 Z"/></g>
<g><path style="opacity:1" fill="#cda9f5" d="M 208.5,206.5 C 208.5,207.5 208.5,208.5 208.5,209.5C 210.226,209.185 211.893,209.019 213.5,209C 212.627,210.045 211.627,210.878 210.5,211.5C 209.791,210.596 208.791,210.263 207.5,210.5C 207.232,208.901 207.566,207.568 208.5,206.5 Z"/></g>
<g><path style="opacity:1" fill="#8b52fd" d="M 106.5,210.5 C 128.5,210.5 150.5,210.5 172.5,210.5C 172.666,214.846 172.499,219.179 172,223.5C 170.397,225.734 168.897,228.067 167.5,230.5C 166.548,232.045 166.215,233.712 166.5,235.5C 165.265,235.721 164.265,236.388 163.5,237.5C 162.708,239.465 162.041,241.465 161.5,243.5C 142.845,244.5 124.179,244.833 105.5,244.5C 105.172,232.988 105.505,221.654 106.5,210.5 Z"/></g>
<g><path style="opacity:1" fill="#8b52fd" d="M 392.5,210.5 C 392.5,221.5 392.5,232.5 392.5,243.5C 373.833,243.5 355.167,243.5 336.5,243.5C 335.058,239.326 333.891,234.992 333,230.5C 332.333,229.167 331.667,229.167 331,230.5C 329.974,227.761 328.474,225.428 326.5,223.5C 326.46,218.807 326.127,214.141 325.5,209.5C 348.006,209.169 370.34,209.503 392.5,210.5 Z"/></g>
<g><path style="opacity:1" fill="#6545a6" d="M 299.5,198.5 C 302.427,204.629 303.093,210.962 301.5,217.5C 301.558,211.082 300.892,204.748 299.5,198.5 Z"/></g>
<g><path style="opacity:1" fill="#130729" d="M 213.5,188.5 C 213.5,188.167 213.5,187.833 213.5,187.5C 221.337,186.968 229.003,187.801 236.5,190C 240.753,193.42 241.587,197.587 239,202.5C 230.975,209.031 223.142,215.698 215.5,222.5C 212.643,224.758 209.643,226.758 206.5,228.5C 204.585,228.784 202.919,228.451 201.5,227.5C 203.989,227.702 206.323,227.202 208.5,226C 211.062,223.267 213.729,220.767 216.5,218.5C 224.42,212.753 231.92,206.42 239,199.5C 240.248,195.255 238.748,192.588 234.5,191.5C 227.818,189.287 220.818,188.287 213.5,188.5 Z"/></g>
<g><path style="opacity:1" fill="#8159d3" d="M 284.5,211.5 C 284.103,213.662 282.769,214.995 280.5,215.5C 282.19,217.519 283.856,219.519 285.5,221.5C 282.185,219.192 278.851,216.859 275.5,214.5C 275.5,214.167 275.5,213.833 275.5,213.5C 278.754,213.793 281.754,213.126 284.5,211.5 Z"/></g>
<g><path style="opacity:1" fill="#423d4a" d="M 217.5,182.5 C 224.653,182.769 231.653,183.936 238.5,186C 245.343,190.2 247.176,196.033 244,203.5C 233.961,212.377 223.794,221.044 213.5,229.5C 214.455,227.254 215.122,224.921 215.5,222.5C 223.142,215.698 230.975,209.031 239,202.5C 241.587,197.587 240.753,193.42 236.5,190C 229.003,187.801 221.337,186.968 213.5,187.5C 212.833,187.5 212.167,187.5 211.5,187.5C 215.591,186.105 219.924,185.272 224.5,185C 222.073,184.098 219.74,183.264 217.5,182.5 Z"/></g>
<g><path style="opacity:1" fill="#130929" d="M 300.5,227.5 C 297.609,228.403 294.609,228.736 291.5,228.5C 287.112,224.779 282.445,221.445 277.5,218.5C 276.833,217.5 276.167,216.5 275.5,215.5C 275.5,215.167 275.5,214.833 275.5,214.5C 278.851,216.859 282.185,219.192 285.5,221.5C 287.004,223.836 289.004,225.669 291.5,227C 299.225,228.442 302.558,225.275 301.5,217.5C 303.093,210.962 302.427,204.629 299.5,198.5C 298.167,195.167 295.833,192.833 292.5,191.5C 291.319,189.933 289.653,189.099 287.5,189C 284.854,188.503 282.187,188.336 279.5,188.5C 279.5,188.167 279.5,187.833 279.5,187.5C 287.718,186.081 294.551,188.748 300,195.5C 305.708,206.177 305.875,216.844 300.5,227.5 Z"/></g>
<g><path style="opacity:1" fill="#845dd8" d="M 214.5,213.5 C 214.714,215.144 214.38,216.644 213.5,218C 214.448,218.483 215.448,218.649 216.5,218.5C 213.729,220.767 211.062,223.267 208.5,226C 206.323,227.202 203.989,227.702 201.5,227.5C 200.5,227.167 199.833,226.5 199.5,225.5C 202.425,225.54 205.091,224.707 207.5,223C 210.083,219.932 212.416,216.765 214.5,213.5 Z"/></g>
<g><path style="opacity:1" fill="#e7e6e6" d="M 203.5,185.5 C 194.234,195.233 191.234,206.566 194.5,219.5C 194.292,221.92 194.626,224.253 195.5,226.5C 194.311,227.429 192.978,227.762 191.5,227.5C 187.965,215.346 189.132,203.679 195,192.5C 197.436,189.553 200.269,187.22 203.5,185.5 Z"/></g>
<g><path style="opacity:1" fill="#423d49" d="M 272.5,218.5 C 274.334,219.494 276.001,219.494 277.5,218.5C 282.445,221.445 287.112,224.779 291.5,228.5C 292.609,229.29 293.942,229.79 295.5,230C 293.481,233.566 290.815,234.232 287.5,232C 282.305,227.634 277.305,223.134 272.5,218.5 Z"/></g>
<g><path style="opacity:1" fill="#6a616a" d="M 215.5,222.5 C 215.122,224.921 214.455,227.254 213.5,229.5C 211.429,230.954 209.262,232.287 207,233.5C 201.735,231.255 201.568,229.588 206.5,228.5C 209.643,226.758 212.643,224.758 215.5,222.5 Z"/></g>
<g><path style="opacity:1" fill="#443e4b" d="M 253.5,152.5 C 263.877,153.01 273.544,155.843 282.5,161C 284.797,163.463 286.463,166.297 287.5,169.5C 280.419,170.071 273.419,170.905 266.5,172C 272.969,173.2 279.303,174.867 285.5,177C 278.805,178.452 272.138,180.119 265.5,182C 253.718,185.057 249.218,192.557 252,204.5C 253.027,207.754 254.527,210.754 256.5,213.5C 252.62,213.588 248.62,213.754 244.5,214C 248.628,217.76 251.628,222.26 253.5,227.5C 244.287,226.916 236.62,230.249 230.5,237.5C 232.546,233.278 235.213,229.445 238.5,226C 237.896,223.416 237.063,220.916 236,218.5C 228.309,224.698 220.809,231.031 213.5,237.5C 211.411,237.143 209.411,236.477 207.5,235.5C 220.809,225.848 233.476,215.515 245.5,204.5C 245.167,206.5 244.833,208.5 244.5,210.5C 246.857,210.663 249.19,210.497 251.5,210C 249.287,203.631 248.954,197.131 250.5,190.5C 248.76,189.191 247.427,189.524 246.5,191.5C 245.599,190.71 244.932,189.71 244.5,188.5C 246.337,178.854 252.337,174.021 262.5,174C 261.672,173.085 260.672,172.419 259.5,172C 261.5,171 263.5,170 265.5,169C 259.541,169.383 253.541,169.883 247.5,170.5C 248.47,167.339 250.137,164.506 252.5,162C 249.743,161.122 247.076,160.122 244.5,159C 248.052,157.205 251.718,155.705 255.5,154.5C 254.757,153.818 254.091,153.151 253.5,152.5 Z"/></g>
<g><path style="opacity:1" fill="#09050d" d="M 238.5,216.5 C 242.344,217.669 245.344,220.002 247.5,223.5C 246.635,224.583 245.635,224.749 244.5,224C 241.882,221.894 239.882,219.394 238.5,216.5 Z"/></g>
<g><path style="opacity:1" fill="#09050d" d="M 257.5,176.5 C 260.518,176.335 263.518,176.502 266.5,177C 259.966,178.512 254.466,181.679 250,186.5C 250.37,181.623 252.87,178.29 257.5,176.5 Z"/></g>
<g><path style="opacity:1" fill="#08070b" d="M 255.5,156.5 C 261.345,156.151 267.012,156.984 272.5,159C 275.302,159.969 277.302,161.802 278.5,164.5C 269.772,165.354 261.106,166.188 252.5,167C 254.5,164.667 256.5,162.333 258.5,160C 256.285,159.83 254.285,159.163 252.5,158C 253.737,157.768 254.737,157.268 255.5,156.5 Z"/></g>
<g><path style="opacity:1" fill="#47424c" d="M 238.5,237.5 C 238.389,236.883 238.056,236.383 237.5,236C 239.041,234.629 240.375,233.129 241.5,231.5C 253.75,227.709 262.75,231.709 268.5,243.5C 268.333,243.833 268.167,244.167 268,244.5C 259.75,234.953 249.916,232.62 238.5,237.5 Z"/></g>
<g><path style="opacity:1" fill="#6e666c" d="M 185.5,230.5 C 192.145,235.445 195.978,242.111 197,250.5C 198.677,262.038 197.01,273.038 192,283.5C 190.167,285.333 188.333,287.167 186.5,289C 183.634,290.457 180.634,290.79 177.5,290C 175.456,289.502 174.122,288.335 173.5,286.5C 172.992,284.135 172.325,281.801 171.5,279.5C 173.631,278.831 175.631,278.165 177.5,277.5C 183.231,277.279 186.731,274.279 188,268.5C 190.502,260.346 189.502,252.68 185,245.5C 182.695,243.07 179.862,242.07 176.5,242.5C 181.888,240.329 181.554,238.829 175.5,238C 179.845,236.819 183.178,234.319 185.5,230.5 Z"/></g>
<g><path style="opacity:1" fill="#6c636a" d="M 318.5,229.5 C 319.153,230.807 319.82,232.14 320.5,233.5C 318.74,236.212 318.073,239.212 318.5,242.5C 311.456,246.084 308.456,251.917 309.5,260C 308.639,267.632 311.305,273.465 317.5,277.5C 309.757,279.349 310.09,281.516 318.5,284C 314.91,285.822 311.243,285.989 307.5,284.5C 298.002,267.773 298.169,251.106 308,234.5C 310.805,231.347 314.305,229.681 318.5,229.5 Z"/></g>
<g><path style="opacity:1" fill="#f5f4f4" d="M 304.5,229.5 C 299.508,234.151 296.674,239.818 296,246.5C 296.811,245.04 297.645,244.707 298.5,245.5C 295.439,255.83 294.772,266.33 296.5,277C 296.156,278.365 295.489,279.532 294.5,280.5C 296.078,281.298 297.744,281.798 299.5,282C 298.328,282.419 297.328,283.085 296.5,284C 298.601,286.77 301.268,288.77 304.5,290C 303.906,290.464 303.239,290.631 302.5,290.5C 297.792,290.057 294.292,287.724 292,283.5C 286.799,272.4 285.133,260.734 287,248.5C 288.587,241.488 292.087,235.655 297.5,231C 299.677,229.798 302.011,229.298 304.5,229.5 Z"/></g>
<g><path style="opacity:1" fill="#dbdadc" d="M 241.5,231.5 C 240.375,233.129 239.041,234.629 237.5,236C 238.056,236.383 238.389,236.883 238.5,237.5C 235.25,239.243 232.416,241.577 230,244.5C 231.453,238.205 235.286,233.872 241.5,231.5 Z"/></g>
<g><path style="opacity:1" fill="#443e4c" d="M 190.5,229.5 C 196.291,228.489 201.124,230.156 205,234.5C 214.992,251.442 214.992,268.442 205,285.5C 200.509,290.259 195.009,291.759 188.5,290C 190.037,288.293 191.704,286.793 193.5,285.5C 197.576,281.698 200.409,277.031 202,271.5C 202.827,267.541 203.327,263.541 203.5,259.5C 202.92,254.457 202.42,249.457 202,244.5C 203,245.833 204,247.167 205,248.5C 204.948,244.973 203.948,241.64 202,238.5C 198.551,234.877 194.717,231.877 190.5,229.5 Z"/></g>
<g><path style="opacity:1" fill="#060508" d="M 245.5,242.5 C 258.376,241.272 265.376,247.106 266.5,260C 265.727,271.273 259.727,277.439 248.5,278.5C 238.177,276.729 232.51,270.562 231.5,260C 232.337,251.006 237.004,245.172 245.5,242.5 Z"/></g>
<g><path style="opacity:1" fill="#050306" d="M 318.5,242.5 C 322.147,242.622 324.981,244.288 327,247.5C 330.288,255.819 330.288,264.152 327,272.5C 324.831,276.19 321.664,277.857 317.5,277.5C 311.305,273.465 308.639,267.632 309.5,260C 308.456,251.917 311.456,246.084 318.5,242.5 Z"/></g>
<g><path style="opacity:1" fill="#8856eb" d="M 392.5,210.5 C 393.495,221.654 393.828,232.988 393.5,244.5C 374.167,244.5 354.833,244.5 335.5,244.5C 334.133,238.764 331.467,233.764 327.5,229.5C 326.659,227.621 326.325,225.621 326.5,223.5C 328.474,225.428 329.974,227.761 331,230.5C 331.667,229.167 332.333,229.167 333,230.5C 333.891,234.992 335.058,239.326 336.5,243.5C 355.167,243.5 373.833,243.5 392.5,243.5C 392.5,232.5 392.5,221.5 392.5,210.5 Z"/></g>
<g><path style="opacity:1" fill="#080709" d="M 176.5,242.5 C 179.862,242.07 182.695,243.07 185,245.5C 189.502,252.68 190.502,260.346 188,268.5C 186.731,274.279 183.231,277.279 177.5,277.5C 174.551,276.386 172.385,274.386 171,271.5C 168.25,264.592 167.917,257.592 170,250.5C 171.274,247.064 173.441,244.397 176.5,242.5 Z"/></g>
<g><path style="opacity:1" fill="#6a636a" d="M 190.5,229.5 C 194.717,231.877 198.551,234.877 202,238.5C 203.948,241.64 204.948,244.973 205,248.5C 204,247.167 203,245.833 202,244.5C 202.42,249.457 202.92,254.457 203.5,259.5C 203.327,263.541 202.827,267.541 202,271.5C 200.409,277.031 197.576,281.698 193.5,285.5C 201.639,268.406 201.472,251.406 193,234.5C 191.5,233 190,231.5 188.5,230C 189.094,229.536 189.761,229.369 190.5,229.5 Z"/></g>
<g><path style="opacity:1" fill="#5c3a9f" d="M 335.5,244.5 C 354.833,244.5 374.167,244.5 393.5,244.5C 393.828,232.988 393.495,221.654 392.5,210.5C 370.34,209.503 348.006,209.169 325.5,209.5C 326.127,214.141 326.46,218.807 326.5,223.5C 326.325,225.621 326.659,227.621 327.5,229.5C 325.781,222.503 324.448,215.17 323.5,207.5C 347.167,207.5 370.833,207.5 394.5,207.5C 394.5,220.167 394.5,232.833 394.5,245.5C 374.66,245.83 354.993,245.497 335.5,244.5 Z"/></g>
<g><path style="opacity:1" fill="#433d4a" d="M 325.5,270.5 C 326.994,265.452 326.827,260.452 325,255.5C 324.964,260.571 323.797,265.237 321.5,269.5C 322.442,264.195 322.609,258.861 322,253.5C 321.152,250.302 319.652,247.469 317.5,245C 322.943,244.43 326.11,246.93 327,252.5C 327.667,257.5 327.667,262.5 327,267.5C 326.768,268.737 326.268,269.737 325.5,270.5 Z"/></g>
<g><path style="opacity:1" fill="#6d666c" d="M 241.5,238.5 C 243.527,238.338 245.527,238.505 247.5,239C 247.957,239.414 248.291,239.914 248.5,240.5C 247.398,241.176 246.398,241.842 245.5,242.5C 237.004,245.172 232.337,251.006 231.5,260C 232.51,270.562 238.177,276.729 248.5,278.5C 246.609,281.172 243.942,282.172 240.5,281.5C 238.147,280.66 236.147,279.326 234.5,277.5C 228.804,267.194 228.138,256.527 232.5,245.5C 232.511,243.983 233.177,242.816 234.5,242C 236.577,240.295 238.91,239.128 241.5,238.5 Z"/></g>
<g><path style="opacity:0.032" fill="#f8f8f8" d="M 99.5,251.5 C 105.833,251.5 112.167,251.5 118.5,251.5C 118.5,252.5 118.5,253.5 118.5,254.5C 112.264,252.918 105.93,251.918 99.5,251.5 Z"/></g>
<g><path style="opacity:1" fill="#f0f0f0" d="M 185.5,230.5 C 183.178,234.319 179.845,236.819 175.5,238C 181.554,238.829 181.888,240.329 176.5,242.5C 173.441,244.397 171.274,247.064 170,250.5C 167.917,257.592 168.25,264.592 171,271.5C 172.385,274.386 174.551,276.386 177.5,277.5C 175.631,278.165 173.631,278.831 171.5,279.5C 172.325,281.801 172.992,284.135 173.5,286.5C 169.485,283.148 166.985,278.815 166,273.5C 163.229,261.454 164.229,249.787 169,238.5C 171.616,233.538 175.616,230.538 181,229.5C 182.592,229.605 184.092,229.939 185.5,230.5 Z"/></g>
<g><path style="opacity:0.004" fill="#fefffe" d="M 99.5,254.5 C 104.985,253.348 110.651,253.182 116.5,254C 110.843,254.499 105.176,254.666 99.5,254.5 Z"/></g>
<g><path style="opacity:1" fill="#423d4a" d="M 240.5,281.5 C 243.942,282.172 246.609,281.172 248.5,278.5C 259.727,277.439 265.727,271.273 266.5,260C 265.376,247.106 258.376,241.272 245.5,242.5C 246.398,241.842 247.398,241.176 248.5,240.5C 248.291,239.914 247.957,239.414 247.5,239C 245.527,238.505 243.527,238.338 241.5,238.5C 259.159,234.524 269.159,241.691 271.5,260C 269.646,276.859 260.313,284.526 243.5,283C 242.263,282.768 241.263,282.268 240.5,281.5 Z"/></g>
<g><path style="opacity:1" fill="#413e47" d="M 286.5,238.5 C 287.376,238.369 288.043,238.702 288.5,239.5C 285.447,244.826 283.28,250.493 282,256.5C 281.667,255.167 281.333,253.833 281,252.5C 279.023,263.227 281.523,272.727 288.5,281C 286.837,281.265 285.337,280.765 284,279.5C 278.384,269.435 277.051,258.768 280,247.5C 281.686,244.117 283.853,241.117 286.5,238.5 Z"/></g>
<g><path style="opacity:1" fill="#443e4b" d="M 318.5,229.5 C 321.342,230.172 323.842,231.506 326,233.5C 329.137,238.108 331.47,243.108 333,248.5C 335.131,261.566 333.131,273.899 327,285.5C 319.993,292.468 313.493,292.135 307.5,284.5C 311.243,285.989 314.91,285.822 318.5,284C 310.09,281.516 309.757,279.349 317.5,277.5C 321.664,277.857 324.831,276.19 327,272.5C 330.288,264.152 330.288,255.819 327,247.5C 324.981,244.288 322.147,242.622 318.5,242.5C 318.073,239.212 318.74,236.212 320.5,233.5C 319.82,232.14 319.153,230.807 318.5,229.5 Z"/></g>
<g><path style="opacity:0.005" fill="#fdfdfd" d="M 400.5,251.5 C 394.347,252.328 388.013,252.828 381.5,253C 387.833,253.333 394.167,253.667 400.5,254C 394.509,254.499 388.509,254.666 382.5,254.5C 382.66,256.199 382.494,257.866 382,259.5C 381.802,257.618 381.302,255.952 380.5,254.5C 380.5,253.5 380.5,252.5 380.5,251.5C 387.167,251.5 393.833,251.5 400.5,251.5 Z"/></g>
<g><path style="opacity:1" fill="#67606a" d="M 214.5,242.5 C 217.915,246.065 219.581,250.398 219.5,255.5C 219.719,256.675 219.386,257.675 218.5,258.5C 217.477,253.074 216.143,247.74 214.5,242.5 Z"/></g>
<g><path style="opacity:1" fill="#dedbde" d="M 232.5,245.5 C 228.138,256.527 228.804,267.194 234.5,277.5C 226.373,269.522 224.539,260.189 229,249.5C 229.949,247.907 231.115,246.574 232.5,245.5 Z"/></g>
<g><path style="opacity:1" fill="#48434d" d="M 247.5,243.5 C 248.833,243.5 250.167,243.5 251.5,243.5C 251.335,246.85 251.502,250.183 252,253.5C 254.805,256.165 256.305,259.498 256.5,263.5C 257.99,265.126 259.49,266.792 261,268.5C 261.309,270.391 260.475,271.725 258.5,272.5C 252.225,265.162 246.058,265.495 240,273.5C 238.955,272.627 238.122,271.627 237.5,270.5C 239.885,267.788 242.218,265.122 244.5,262.5C 250.988,266.429 253.821,264.763 253,257.5C 251.211,255.771 249.044,255.104 246.5,255.5C 247.43,251.6 247.763,247.6 247.5,243.5 Z"/></g>
<g><path style="opacity:1" fill="#3e3941" d="M 214.5,242.5 C 216.143,247.74 217.477,253.074 218.5,258.5C 219.386,257.675 219.719,256.675 219.5,255.5C 221.275,264.731 219.108,273.065 213,280.5C 214.631,275.666 216.131,270.666 217.5,265.5C 215.783,260.388 214.95,255.054 215,249.5C 213.819,245.637 211.986,242.137 209.5,239C 210.167,238.333 210.833,238.333 211.5,239C 213.063,239.759 214.063,240.926 214.5,242.5 Z"/></g>
<g><path style="opacity:1" fill="#70696e" d="M 304.5,229.5 C 306.527,229.338 308.527,229.505 310.5,230C 305.994,233.495 302.828,237.995 301,243.5C 297.506,255.596 297.839,267.596 302,279.5C 303.886,283.44 306.386,286.94 309.5,290C 307.181,291.728 304.847,291.895 302.5,290.5C 303.239,290.631 303.906,290.464 304.5,290C 301.268,288.77 298.601,286.77 296.5,284C 297.328,283.085 298.328,282.419 299.5,282C 297.744,281.798 296.078,281.298 294.5,280.5C 295.489,279.532 296.156,278.365 296.5,277C 294.772,266.33 295.439,255.83 298.5,245.5C 297.645,244.707 296.811,245.04 296,246.5C 296.674,239.818 299.508,234.151 304.5,229.5 Z"/></g>
<g><path style="opacity:0.007" fill="#fefffe" d="M 378.5,266.5 C 379.833,267.5 379.833,268.5 378.5,269.5C 378.5,268.5 378.5,267.5 378.5,266.5 Z"/></g>
<g><path style="opacity:1" fill="#dcd9dc" d="M 247.5,243.5 C 247.763,247.6 247.43,251.6 246.5,255.5C 245.883,255.611 245.383,255.944 245,256.5C 244.505,258.473 244.338,260.473 244.5,262.5C 242.218,265.122 239.885,267.788 237.5,270.5C 236.957,270.44 236.624,270.107 236.5,269.5C 238.149,267.35 239.982,265.35 242,263.5C 241.707,259.432 243.041,256.098 246,253.5C 246.179,249.975 246.679,246.641 247.5,243.5 Z"/></g>
<g><path style="opacity:0.008" fill="#fefffe" d="M 377.5,269.5 C 377.833,269.5 378.167,269.5 378.5,269.5C 378.737,270.791 378.404,271.791 377.5,272.5C 377.5,271.5 377.5,270.5 377.5,269.5 Z"/></g>
<g><path style="opacity:1" fill="#47424c" d="M 176.5,244.5 C 181.208,244.008 181.708,245.341 178,248.5C 174.182,257.82 175.016,266.653 180.5,275C 177.083,275.876 174.583,274.709 173,271.5C 168.763,261.66 169.93,252.66 176.5,244.5 Z"/></g>
<g><path style="opacity:0.008" fill="#fefffe" d="M 376.5,272.5 C 376.833,272.5 377.167,272.5 377.5,272.5C 377.672,273.492 377.338,274.158 376.5,274.5C 376.5,273.833 376.5,273.167 376.5,272.5 Z"/></g>
<g><path style="opacity:0.007" fill="#fefffe" d="M 375.5,274.5 C 375.833,274.5 376.167,274.5 376.5,274.5C 376.737,275.791 376.404,276.791 375.5,277.5C 375.5,276.5 375.5,275.5 375.5,274.5 Z"/></g>
<g><path style="opacity:1" fill="#6d656c" d="M 230.5,237.5 C 224.049,250.036 223.882,262.703 230,275.5C 235.732,282.8 243.232,286.133 252.5,285.5C 252.938,285.435 253.272,285.601 253.5,286C 247.996,289.259 248.663,290.925 255.5,291C 255.167,291.333 254.833,291.667 254.5,292C 249.682,293.036 245.015,294.369 240.5,296C 242.898,297.524 245.231,299.024 247.5,300.5C 243.147,300.235 238.813,299.735 234.5,299C 231.135,298.495 228.135,297.328 225.5,295.5C 220.811,291.778 216.811,287.445 213.5,282.5C 225.494,267.539 225.494,252.539 213.5,237.5C 220.809,231.031 228.309,224.698 236,218.5C 237.063,220.916 237.896,223.416 238.5,226C 235.213,229.445 232.546,233.278 230.5,237.5 Z"/></g>
<g><path style="opacity:1" fill="#f4f2f4" d="M 229.5,226.5 C 231.429,226.231 233.095,226.731 234.5,228C 232.787,229.378 231.453,231.045 230.5,233C 229.552,233.483 228.552,233.649 227.5,233.5C 226.714,238.023 225.214,242.357 223,246.5C 222.027,243.221 220.527,240.221 218.5,237.5C 222.494,234.173 226.161,230.506 229.5,226.5 Z"/></g>
<g><path style="opacity:0.008" fill="#fefffe" d="M 374.5,277.5 C 374.833,277.5 375.167,277.5 375.5,277.5C 375.167,280.167 374.833,280.167 374.5,277.5 Z"/></g>
<g><path style="opacity:0.008" fill="#fefffe" d="M 370.5,286.5 C 371.525,286.897 371.692,287.563 371,288.5C 370.536,287.906 370.369,287.239 370.5,286.5 Z"/></g>
<g><path style="opacity:0.007" fill="#fefffe" d="M 130.5,290.5 C 131.167,290.5 131.5,290.833 131.5,291.5C 131.253,293.975 130.587,293.975 129.5,291.5C 129.624,290.893 129.957,290.56 130.5,290.5 Z"/></g>
<g><path style="opacity:0.006" fill="#fefffe" d="M 366.5,293.5 C 367.833,294.167 367.833,294.833 366.5,295.5C 366.5,294.833 366.5,294.167 366.5,293.5 Z"/></g>
<g><path style="opacity:0.012" fill="#fefffe" d="M 365.5,295.5 C 365.833,295.5 366.167,295.5 366.5,295.5C 366.315,296.17 365.981,296.17 365.5,295.5 Z"/></g>
<g><path style="opacity:0.006" fill="#fefffe" d="M 364.5,296.5 C 364.833,296.5 365.167,296.5 365.5,296.5C 365.672,297.492 365.338,298.158 364.5,298.5C 364.5,297.833 364.5,297.167 364.5,296.5 Z"/></g>
<g><path style="opacity:1" fill="#46404f" d="M 124.5,251.5 C 136.5,251.5 148.5,251.5 160.5,251.5C 159.2,264.843 162.034,277.177 169,288.5C 170.558,290.359 172.391,291.859 174.5,293C 182.395,294.601 190.395,294.934 198.5,294C 201.319,293.088 203.986,291.922 206.5,290.5C 213.495,293.997 220.495,297.497 227.5,301C 240.721,305.287 254.054,305.62 267.5,302C 275.999,298.833 284.166,295 292,290.5C 294.071,291.787 296.238,292.953 298.5,294C 319.46,299.948 332.293,292.448 337,271.5C 337.5,264.842 337.666,258.175 337.5,251.5C 349.838,251.333 362.171,251.5 374.5,252C 361.67,304.162 329.337,337.162 277.5,351C 218.897,361.034 173.064,341.534 140,292.5C 132.576,279.658 127.409,265.991 124.5,251.5 Z"/></g>
<g><path style="opacity:1" fill="#453f4b" d="M 247.5,300.5 C 245.231,299.024 242.898,297.524 240.5,296C 245.015,294.369 249.682,293.036 254.5,292C 254.833,291.667 255.167,291.333 255.5,291C 248.663,290.925 247.996,289.259 253.5,286C 253.272,285.601 252.938,285.435 252.5,285.5C 256.353,284.826 259.853,283.159 263,280.5C 262.107,283.436 260.274,285.936 257.5,288C 259.5,288 261.5,288 263.5,288C 259.937,291.947 255.604,294.613 250.5,296C 252.67,297.586 255.004,298.92 257.5,300C 254.183,300.498 250.85,300.665 247.5,300.5 Z"/></g>
<g><path style="opacity:1" fill="#48404f" d="M 224.5,278.5 C 229.532,283.867 235.532,288.033 242.5,291C 239.828,291.834 237.161,292.668 234.5,293.5C 232.435,289.593 230.935,289.926 230,294.5C 223.705,290.765 221.871,285.432 224.5,278.5 Z"/></g>
<g><path style="opacity:1" fill="#e9e6e8" d="M 213.5,282.5 C 216.811,287.445 220.811,291.778 225.5,295.5C 219.344,292.912 214.01,289.078 209.5,284C 210.745,283.209 212.078,282.709 213.5,282.5 Z"/></g>
<g><path style="opacity:1" fill="#665f68" d="M 325.5,270.5 C 324.372,274.226 322.039,275.559 318.5,274.5C 319.696,272.855 320.696,271.189 321.5,269.5C 323.797,265.237 324.964,260.571 325,255.5C 326.827,260.452 326.994,265.452 325.5,270.5 Z"/></g>
<g><path style="opacity:1" fill="#080609" d="M 246.5,255.5 C 249.044,255.104 251.211,255.771 253,257.5C 253.821,264.763 250.988,266.429 244.5,262.5C 244.338,260.473 244.505,258.473 245,256.5C 245.383,255.944 245.883,255.611 246.5,255.5 Z"/></g>
<g><path style="opacity:0.006" fill="#fefffe" d="M 363.5,298.5 C 363.833,298.5 364.167,298.5 364.5,298.5C 364.672,299.492 364.338,300.158 363.5,300.5C 363.5,299.833 363.5,299.167 363.5,298.5 Z"/></g>
<g><path style="opacity:0.008" fill="#fefffe" d="M 362.5,300.5 C 362.833,300.5 363.167,300.5 363.5,300.5C 363.315,301.17 362.981,301.17 362.5,300.5 Z"/></g>
<g><path style="opacity:0.007" fill="#fefffe" d="M 139.5,304.5 C 140.167,304.5 140.5,304.833 140.5,305.5C 140.253,307.975 139.587,307.975 138.5,305.5C 138.624,304.893 138.957,304.56 139.5,304.5 Z"/></g>
<g><path style="opacity:0.006" fill="#fefffe" d="M 358.5,305.5 C 359.833,306.167 359.833,306.833 358.5,307.5C 358.5,306.833 358.5,306.167 358.5,305.5 Z"/></g>
<g><path style="opacity:0.008" fill="#fefffe" d="M 357.5,307.5 C 357.833,307.5 358.167,307.5 358.5,307.5C 358.315,308.17 357.981,308.17 357.5,307.5 Z"/></g>
<g><path style="opacity:0.007" fill="#fefffe" d="M 142.5,308.5 C 143.167,308.5 143.5,308.833 143.5,309.5C 143.253,311.975 142.587,311.975 141.5,309.5C 141.624,308.893 141.957,308.56 142.5,308.5 Z"/></g>
<g><path style="opacity:0.012" fill="#fefffe" d="M 356.5,308.5 C 356.833,308.5 357.167,308.5 357.5,308.5C 357.315,309.17 356.981,309.17 356.5,308.5 Z"/></g>
<g><path style="opacity:0.006" fill="#fefffe" d="M 355.5,309.5 C 355.833,309.5 356.167,309.5 356.5,309.5C 356.672,310.492 356.338,311.158 355.5,311.5C 355.5,310.833 355.5,310.167 355.5,309.5 Z"/></g>
<g><path style="opacity:0.008" fill="#fefffe" d="M 354.5,311.5 C 354.833,311.5 355.167,311.5 355.5,311.5C 355.315,312.17 354.981,312.17 354.5,311.5 Z"/></g>
<g><path style="opacity:1" fill="#f3f1f5" d="M 187.5,298.5 C 191.423,299.795 195.09,301.628 198.5,304C 194.433,311.3 190.766,318.8 187.5,326.5C 186.609,327.59 185.609,327.59 184.5,326.5C 183.417,325.635 183.251,324.635 184,323.5C 187.417,317.34 190.25,311.007 192.5,304.5C 191.178,304.33 190.011,304.663 189,305.5C 186.06,311.046 183.394,316.713 181,322.5C 179.667,323.833 178.333,323.833 177,322.5C 180.194,314.438 183.694,306.438 187.5,298.5 Z"/></g>
<g><path style="opacity:1" fill="#f1eff3" d="M 263.5,312.5 C 266.833,312.5 270.167,312.5 273.5,312.5C 274.859,321.115 275.859,329.781 276.5,338.5C 275.167,338.5 273.833,338.5 272.5,338.5C 271.345,331.886 270.511,325.219 270,318.5C 269.29,317.027 268.124,316.36 266.5,316.5C 267.727,323.794 268.227,331.127 268,338.5C 266.556,340.155 264.722,340.822 262.5,340.5C 262.998,337.99 263.664,335.49 264.5,333C 263.315,327.369 262.315,321.702 261.5,316C 261.862,314.566 262.528,313.399 263.5,312.5 Z"/></g>
<g><path style="opacity:0.012" fill="#fefffe" d="M 353.5,312.5 C 353.833,312.5 354.167,312.5 354.5,312.5C 354.315,313.17 353.981,313.17 353.5,312.5 Z"/></g>
<g><path style="opacity:0.012" fill="#fefffe" d="M 352.5,313.5 C 352.833,313.5 353.167,313.5 353.5,313.5C 353.315,314.17 352.981,314.17 352.5,313.5 Z"/></g>
<g><path style="opacity:0.006" fill="#fefffe" d="M 147.5,314.5 C 148.167,314.5 148.5,314.833 148.5,315.5C 148.253,317.975 147.587,317.975 146.5,315.5C 146.624,314.893 146.957,314.56 147.5,314.5 Z"/></g>
<g><path style="opacity:0.012" fill="#fefffe" d="M 351.5,314.5 C 351.833,314.5 352.167,314.5 352.5,314.5C 352.315,315.17 351.981,315.17 351.5,314.5 Z"/></g>
<g><path style="opacity:0.005" fill="#fefffe" d="M 350.5,315.5 C 350.833,315.5 351.167,315.5 351.5,315.5C 350.968,318.46 350.301,318.793 349.5,316.5C 350.167,316.5 350.5,316.167 350.5,315.5 Z"/></g>
<g><path style="opacity:1" fill="#8f8c95" d="M 251.5,314.5 C 250.167,314.5 248.833,314.5 247.5,314.5C 247.81,317.713 247.477,320.713 246.5,323.5C 246.5,320.167 246.5,316.833 246.5,313.5C 248.415,313.216 250.081,313.549 251.5,314.5 Z"/></g>
<g><path style="opacity:1" fill="#f3f1f5" d="M 290.5,306.5 C 291.496,306.414 292.329,306.748 293,307.5C 295.572,314.549 297.739,321.716 299.5,329C 298.594,332.78 296.094,334.613 292,334.5C 286.455,333.05 286.122,330.717 291,327.5C 291.483,328.448 291.649,329.448 291.5,330.5C 292.5,330.5 293.5,330.5 294.5,330.5C 294.755,321.387 292.255,320.387 287,327.5C 284.853,321.561 283.02,315.561 281.5,309.5C 283.167,309.5 284.833,309.5 286.5,309.5C 286.814,312.947 287.648,316.28 289,319.5C 290.022,318.646 290.855,317.646 291.5,316.5C 290.195,313.947 289.195,311.28 288.5,308.5C 289.243,307.818 289.909,307.151 290.5,306.5 Z"/></g>
<g><path style="opacity:1" fill="#f3f1f5" d="M 307.5,299.5 C 309.59,299.45 310.923,300.45 311.5,302.5C 309.713,303.316 308.046,304.316 306.5,305.5C 306.833,305.833 307.167,306.167 307.5,306.5C 309.191,304.744 311.191,304.244 313.5,305C 316.822,309.811 319.489,314.978 321.5,320.5C 321.471,322.029 320.804,323.196 319.5,324C 317.167,325.167 314.833,326.333 312.5,327.5C 308.643,319.62 304.643,311.786 300.5,304C 302.898,302.476 305.231,300.976 307.5,299.5 Z"/></g>
<g><path style="opacity:1" fill="#4e4b53" d="M 308.5,309.5 C 310.39,309.297 311.89,309.963 313,311.5C 314.467,314.758 315.633,318.092 316.5,321.5C 315.325,321.719 314.325,321.386 313.5,320.5C 311.547,316.931 309.881,313.264 308.5,309.5 Z"/></g>
<g><path style="opacity:0.008" fill="#fefffe" d="M 345.5,321.5 C 346.833,322.167 346.833,322.167 345.5,321.5 Z"/></g>
<g><path style="opacity:0.008" fill="#fefffe" d="M 344.5,322.5 C 344.833,322.5 345.167,322.5 345.5,322.5C 345.315,323.17 344.981,323.17 344.5,322.5 Z"/></g>
<g><path style="opacity:1" fill="#f0eef2" d="M 205.5,306.5 C 207.484,306.383 209.15,307.05 210.5,308.5C 208.521,311.72 207.855,315.053 208.5,318.5C 211.365,316.257 212.698,313.257 212.5,309.5C 214.167,309.5 215.833,309.5 217.5,309.5C 216.549,314.539 214.549,319.039 211.5,323C 212.749,327.495 212.749,331.995 211.5,336.5C 210.833,336.167 210.167,335.833 209.5,335.5C 208.5,331.5 207.5,327.5 206.5,323.5C 204.833,326.833 203.167,330.167 201.5,333.5C 200.098,333.135 199.098,332.301 198.5,331C 201.383,322.965 203.716,314.798 205.5,306.5 Z"/></g>
<g><path style="opacity:0.008" fill="#fefffe" d="M 343.5,323.5 C 343.833,323.5 344.167,323.5 344.5,323.5C 344.315,324.17 343.981,324.17 343.5,323.5 Z"/></g>
<g><path style="opacity:0.005" fill="#fefffe" d="M 339.5,326.5 C 341.793,327.301 341.46,327.968 338.5,328.5C 338.5,328.167 338.5,327.833 338.5,327.5C 339.167,327.5 339.5,327.167 339.5,326.5 Z"/></g>
<g><path style="opacity:0.005" fill="#fefffe" d="M 160.5,327.5 C 161.167,327.5 161.5,327.833 161.5,328.5C 160.503,329.713 159.503,329.546 158.5,328C 159.094,327.536 159.761,327.369 160.5,327.5 Z"/></g>
<g><path style="opacity:0.012" fill="#fefffe" d="M 337.5,328.5 C 337.833,328.5 338.167,328.5 338.5,328.5C 338.315,329.17 337.981,329.17 337.5,328.5 Z"/></g>
<g><path style="opacity:0.012" fill="#fefffe" d="M 336.5,329.5 C 336.833,329.5 337.167,329.5 337.5,329.5C 337.315,330.17 336.981,330.17 336.5,329.5 Z"/></g>
<g><path style="opacity:0.012" fill="#fefffe" d="M 335.5,330.5 C 335.833,330.5 336.167,330.5 336.5,330.5C 336.315,331.17 335.981,331.17 335.5,330.5 Z"/></g>
<g><path style="opacity:0.008" fill="#fefffe" d="M 334.5,331.5 C 334.833,331.5 335.167,331.5 335.5,331.5C 335.315,332.17 334.981,332.17 334.5,331.5 Z"/></g>
<g><path style="opacity:0.006" fill="#fefffe" d="M 166.5,332.5 C 167.167,332.5 167.5,332.833 167.5,333.5C 166.503,334.713 165.503,334.546 164.5,333C 165.094,332.536 165.761,332.369 166.5,332.5 Z"/></g>
<g><path style="opacity:1" fill="#f6f4f7" d="M 246.5,323.5 C 247.477,320.713 247.81,317.713 247.5,314.5C 248.833,314.5 250.167,314.5 251.5,314.5C 251.883,319.343 251.217,324.009 249.5,328.5C 250.832,332.161 252.165,335.828 253.5,339.5C 251.994,340.747 250.494,340.747 249,339.5C 244.828,325.836 242.995,326.169 243.5,340.5C 242.167,340.5 240.833,340.5 239.5,340.5C 239.5,331.5 239.5,322.5 239.5,313.5C 240.833,313.5 242.167,313.5 243.5,313.5C 243.177,317.226 243.511,320.893 244.5,324.5C 245.183,324.137 245.85,323.804 246.5,323.5 Z"/></g>
<g><path style="opacity:0.007" fill="#fefffe" d="M 332.5,332.5 C 333.167,332.5 333.833,332.5 334.5,332.5C 333.779,334.382 332.779,334.715 331.5,333.5C 332.167,333.5 332.5,333.167 332.5,332.5 Z"/></g>
<g><path style="opacity:0.008" fill="#fefffe" d="M 326.5,337.5 C 327.833,338.167 327.833,338.167 326.5,337.5 Z"/></g>
<g><path style="opacity:0.006" fill="#fefffe" d="M 324.5,339.5 C 324.5,339.167 324.5,338.833 324.5,338.5C 325.167,338.5 325.833,338.5 326.5,338.5C 326.158,339.338 325.492,339.672 324.5,339.5 Z"/></g>
<g><path style="opacity:0.012" fill="#fefffe" d="M 323.5,339.5 C 323.833,339.5 324.167,339.5 324.5,339.5C 324.315,340.17 323.981,340.17 323.5,339.5 Z"/></g>
<g><path style="opacity:0.006" fill="#fefffe" d="M 321.5,341.5 C 321.5,341.167 321.5,340.833 321.5,340.5C 322.167,340.5 322.833,340.5 323.5,340.5C 323.158,341.338 322.492,341.672 321.5,341.5 Z"/></g>
<g><path style="opacity:0.012" fill="#fefffe" d="M 320.5,341.5 C 320.833,341.5 321.167,341.5 321.5,341.5C 321.315,342.17 320.981,342.17 320.5,341.5 Z"/></g>
<g><path style="opacity:0.006" fill="#fefffe" d="M 318.5,343.5 C 318.5,343.167 318.5,342.833 318.5,342.5C 319.167,342.5 319.833,342.5 320.5,342.5C 320.158,343.338 319.492,343.672 318.5,343.5 Z"/></g>
<g><path style="opacity:0.007" fill="#fefffe" d="M 182.5,343.5 C 183.167,343.5 183.5,343.833 183.5,344.5C 182.503,345.713 181.503,345.546 180.5,344C 181.094,343.536 181.761,343.369 182.5,343.5 Z"/></g>
<g><path style="opacity:0.006" fill="#fefffe" d="M 316.5,344.5 C 316.5,344.167 316.5,343.833 316.5,343.5C 317.167,343.5 317.833,343.5 318.5,343.5C 318.158,344.338 317.492,344.672 316.5,344.5 Z"/></g>
<g><path style="opacity:0.008" fill="#fefffe" d="M 315.5,344.5 C 315.833,344.5 316.167,344.5 316.5,344.5C 316.315,345.17 315.981,345.17 315.5,344.5 Z"/></g>
<g><path style="opacity:0.008" fill="#fefffe" d="M 313.5,346.5 C 313.5,346.167 313.5,345.833 313.5,345.5C 314.167,345.5 314.833,345.5 315.5,345.5C 315.158,346.338 314.492,346.672 313.5,346.5 Z"/></g>
<g><path style="opacity:0.006" fill="#fefffe" d="M 311.5,347.5 C 311.5,347.167 311.5,346.833 311.5,346.5C 312.167,346.5 312.833,346.5 313.5,346.5C 313.158,347.338 312.492,347.672 311.5,347.5 Z"/></g>
<g><path style="opacity:0.01" fill="#fefffe" d="M 309.5,348.5 C 309.5,348.167 309.5,347.833 309.5,347.5C 310.167,347.5 310.833,347.5 311.5,347.5C 311.158,348.338 310.492,348.672 309.5,348.5 Z"/></g>
<g><path style="opacity:0.006" fill="#fefffe" d="M 307.5,349.5 C 307.5,349.167 307.5,348.833 307.5,348.5C 308.167,348.5 308.833,348.5 309.5,348.5C 309.158,349.338 308.492,349.672 307.5,349.5 Z"/></g>
<g><path style="opacity:0.01" fill="#fefffe" d="M 305.5,350.5 C 305.5,350.167 305.5,349.833 305.5,349.5C 306.167,349.5 306.833,349.5 307.5,349.5C 307.158,350.338 306.492,350.672 305.5,350.5 Z"/></g>
<g><path style="opacity:0.008" fill="#fefffe" d="M 303.5,351.5 C 303.5,351.167 303.5,350.833 303.5,350.5C 304.167,350.5 304.833,350.5 305.5,350.5C 305.158,351.338 304.492,351.672 303.5,351.5 Z"/></g>
<g><path style="opacity:0.007" fill="#fefffe" d="M 300.5,352.5 C 300.5,352.167 300.5,351.833 300.5,351.5C 301.5,351.5 302.5,351.5 303.5,351.5C 302.791,352.404 301.791,352.737 300.5,352.5 Z"/></g>
<g><path style="opacity:0.008" fill="#fefffe" d="M 298.5,353.5 C 298.5,353.167 298.5,352.833 298.5,352.5C 299.167,352.5 299.833,352.5 300.5,352.5C 300.158,353.338 299.492,353.672 298.5,353.5 Z"/></g>
<g><path style="opacity:0.007" fill="#fefffe" d="M 295.5,354.5 C 295.5,354.167 295.5,353.833 295.5,353.5C 296.5,353.5 297.5,353.5 298.5,353.5C 297.791,354.404 296.791,354.737 295.5,354.5 Z"/></g>
<g><path style="opacity:0.788" fill="#636363" d="M 209.5,355.5 C 209.5,355.167 209.5,354.833 209.5,354.5C 212.152,354.41 214.485,355.076 216.5,356.5C 215.167,356.5 213.833,356.5 212.5,356.5C 211.791,355.596 210.791,355.263 209.5,355.5 Z"/></g>
<g><path style="opacity:0.007" fill="#fefffe" d="M 292.5,354.5 C 293.5,354.5 294.5,354.5 295.5,354.5C 293.898,356.074 291.898,356.741 289.5,356.5C 289.5,356.167 289.5,355.833 289.5,355.5C 290.791,355.737 291.791,355.404 292.5,354.5 Z"/></g>
<g><path style="opacity:0.007" fill="#fefffe" d="M 209.5,355.5 C 210.209,356.404 211.209,356.737 212.5,356.5C 212.5,356.833 212.5,357.167 212.5,357.5C 210.073,357.477 207.74,356.977 205.5,356C 206.793,355.51 208.127,355.343 209.5,355.5 Z"/></g>
<g><path style="opacity:0.009" fill="#fefffe" d="M 286.5,357.5 C 286.5,357.167 286.5,356.833 286.5,356.5C 287.5,356.5 288.5,356.5 289.5,356.5C 288.791,357.404 287.791,357.737 286.5,357.5 Z"/></g>
<g><path style="opacity:0.007" fill="#fefffe" d="M 212.5,357.5 C 213.833,357.5 215.167,357.5 216.5,357.5C 217.568,358.434 218.901,358.768 220.5,358.5C 220.5,358.833 220.5,359.167 220.5,359.5C 217.505,359.706 214.838,359.04 212.5,357.5 Z"/></g>
<g><path style="opacity:0.007" fill="#fefffe" d="M 282.5,357.5 C 283.833,357.5 285.167,357.5 286.5,357.5C 284.162,359.04 281.495,359.706 278.5,359.5C 278.5,359.167 278.5,358.833 278.5,358.5C 280.099,358.768 281.432,358.434 282.5,357.5 Z"/></g>
<g><path style="opacity:0.006" fill="#fefffe" d="M 220.5,359.5 C 222.167,359.5 223.833,359.5 225.5,359.5C 223.833,360.833 222.167,360.833 220.5,359.5 Z"/></g>
<g><path style="opacity:0.007" fill="#fefffe" d="M 273.5,359.5 C 275.167,359.5 276.833,359.5 278.5,359.5C 276.833,360.833 275.167,360.833 273.5,359.5 Z"/></g>
</svg>
